<?xml version="1.0" standalone="no"?>
<!DOCTYPE svg PUBLIC "-//W3C//DTD SVG 20010904//EN"
 "http://www.w3.org/TR/2001/REC-SVG-20010904/DTD/svg10.dtd">
<svg version="1.0" xmlns="http://www.w3.org/2000/svg"
 width="430.000000pt" height="397.000000pt" viewBox="0 0 430.000000 397.000000"
 preserveAspectRatio="xMidYMid meet">

<g transform="translate(0.000000,397.000000) scale(0.100000,-0.100000)"
fill="#000000" stroke="none">
<path d="M0 2063 l0 -1908 24 25 c28 30 541 609 716 808 73 83 124 149 122
159 -4 17 116 145 128 138 4 -2 38 33 77 78 56 66 75 98 97 162 15 44 54 136
86 205 31 69 77 168 101 220 24 52 89 169 144 260 56 91 107 185 114 209 25
88 60 112 101 71 27 -27 26 -51 -18 -238 -29 -121 -45 -169 -62 -187 -20 -22
-24 -39 -31 -142 -5 -86 -21 -176 -57 -333 -68 -289 -68 -298 -19 -354 29 -34
41 -40 137 -62 58 -13 184 -43 280 -66 l175 -42 -60 -8 c-32 -4 -73 -12 -90
-17 -48 -16 -180 -31 -265 -31 -43 0 -90 -4 -103 -9 -28 -11 -91 -96 -82 -111
8 -12 -106 -181 -119 -177 -6 2 -117 -157 -246 -352 l-236 -356 1054 -3 c581
-1 1057 0 1059 2 2 2 -29 76 -68 165 l-72 161 -101 57 c-55 32 -122 68 -147
80 -26 12 -76 48 -111 81 -35 32 -86 72 -114 87 -27 16 -74 48 -104 71 -30 23
-71 47 -91 53 -76 24 -104 84 -54 117 20 13 41 16 97 12 62 -5 86 -13 194 -68
155 -78 164 -76 164 34 0 89 -34 202 -106 352 l-47 99 -10 -45 c-5 -25 -9 -61
-9 -81 1 -29 -6 -43 -34 -70 -30 -29 -41 -34 -82 -33 -26 1 -86 11 -133 23
-48 11 -101 21 -118 21 -16 0 -45 7 -63 15 -18 8 -105 30 -193 50 -229 51
-240 54 -270 85 -52 55 -52 62 56 527 55 236 128 559 164 718 80 359 80 358
111 394 46 55 71 55 312 1 564 -128 558 -125 580 -176 17 -37 15 -105 -7 -203
-39 -172 -153 -670 -187 -814 -18 -81 -34 -157 -34 -168 0 -31 27 -77 50 -84
25 -8 42 -38 44 -79 1 -28 73 -176 86 -176 3 0 12 13 21 29 23 40 100 69 142
53 26 -10 34 -9 50 6 27 24 104 21 149 -5 23 -14 40 -18 49 -12 24 15 83 10
115 -10 46 -28 67 -69 123 -239 68 -206 81 -276 81 -430 0 -151 -3 -141 116
-408 l86 -194 319 0 319 0 0 1985 0 1985 -2150 0 -2150 0 0 -1907z m1848 1177
c17 -63 27 -118 23 -122 -3 -4 -20 -10 -37 -14 -28 -5 -35 1 -112 90 -45 52
-82 99 -82 104 0 7 168 62 177 58 1 -1 15 -53 31 -116z m201 5 c2 -3 -5 -35
-15 -72 -18 -60 -23 -68 -44 -68 -24 0 -25 3 -28 79 l-3 79 43 -7 c23 -4 44
-9 47 -11z m-299 -237 c0 -4 -8 -12 -19 -17 -14 -8 -34 -4 -81 14 -35 14 -65
27 -68 29 -2 3 11 23 29 46 l33 41 53 -53 c29 -29 53 -56 53 -60z m1183 -572
c18 -56 -7 -102 -110 -203 -51 -51 -98 -93 -103 -93 -5 0 -5 14 0 33 5 17 21
85 35 150 26 113 29 120 59 133 17 7 49 13 70 11 34 -2 41 -6 49 -31z m-159
-437 c14 -17 26 -43 26 -58 0 -32 -45 -99 -87 -129 -29 -20 -83 -39 -83 -29 0
17 40 197 49 220 15 39 60 38 95 -4z m-65 -265 c14 -17 21 -41 21 -67 0 -36
-6 -47 -53 -92 -30 -29 -66 -54 -80 -57 -15 -3 -27 -3 -27 -1 0 13 51 226 55
234 13 20 63 9 84 -17z"/>
<path d="M1856 2378 c-14 -61 -24 -113 -22 -115 8 -8 211 -53 221 -49 7 2 17
33 24 68 7 34 17 82 23 106 6 23 8 45 5 48 -5 6 -200 54 -217 54 -4 0 -20 -50
-34 -112z m164 47 c43 -11 45 -13 44 -47 -1 -20 -7 -57 -15 -82 l-14 -47 -40
6 c-35 6 -115 25 -123 30 -2 2 25 129 33 152 4 13 27 11 115 -12z"/>
<path d="M1923 2363 c-12 -52 -7 -63 34 -63 12 0 28 -2 35 -5 10 -4 18 6 26
33 7 22 12 44 12 49 0 8 -71 33 -93 33 -2 0 -9 -21 -14 -47z"/>
<path d="M2150 2415 c0 -7 13 -18 29 -25 42 -17 31 -43 -15 -34 -27 5 -34 3
-34 -10 0 -10 15 -20 45 -27 32 -8 45 -16 45 -29 0 -13 -6 -17 -20 -13 -24 6
-29 -24 -5 -33 22 -9 18 -23 -10 -34 -30 -11 -33 -30 -5 -30 11 0 20 7 20 15
0 9 6 12 16 8 12 -4 14 -14 9 -39 -5 -29 -3 -34 13 -34 24 0 52 118 30 131 -7
5 -11 22 -10 44 3 26 0 35 -12 35 -12 0 -13 6 -5 32 5 17 8 33 6 34 -1 1 -23
6 -49 12 -37 7 -48 7 -48 -3z"/>
<path d="M2276 2378 c-9 -36 -7 -48 9 -48 16 0 31 43 20 59 -10 18 -22 13 -29
-11z"/>
<path d="M2345 2368 c-8 -25 -45 -190 -45 -203 0 -13 206 -69 221 -59 4 2 17
48 30 102 12 53 24 102 26 108 3 8 -35 21 -105 38 -126 30 -121 30 -127 14z
m144 -53 c44 -11 46 -13 43 -46 -1 -19 -9 -57 -17 -85 l-15 -51 -52 13 c-29 7
-65 15 -80 18 -33 7 -33 11 -12 105 l16 71 35 -6 c20 -4 56 -12 82 -19z"/>
<path d="M2397 2293 c-3 -5 -8 -26 -11 -49 l-7 -40 48 -11 c26 -6 49 -11 50
-10 0 1 4 23 8 49 l7 46 -38 11 c-46 13 -51 13 -57 4z"/>
<path d="M2106 2244 c-10 -27 -7 -54 8 -54 13 0 26 28 26 58 0 18 -27 15 -34
-4z"/>
<path d="M1820 2205 c0 -8 7 -15 15 -15 8 0 15 7 15 15 0 8 -7 15 -15 15 -8 0
-15 -7 -15 -15z"/>
<path d="M1885 2196 c-3 -9 -7 -23 -10 -32 -3 -10 -15 -14 -36 -12 -27 3 -33
-1 -42 -25 -11 -33 -11 -33 31 -42 25 -5 32 -3 32 9 0 9 7 16 15 16 8 0 15 -9
15 -19 0 -25 27 -35 38 -14 8 14 16 14 53 5 36 -9 45 -9 52 3 12 22 37 18 37
-5 0 -11 5 -20 10 -20 6 0 10 -8 10 -19 0 -17 -3 -18 -57 -5 -74 17 -83 17
-83 -1 0 -13 55 -35 87 -35 8 0 10 -11 6 -35 -6 -36 12 -51 23 -20 4 9 13 14
22 13 9 -2 19 9 26 27 8 22 16 30 29 27 12 -2 16 -9 12 -22 -5 -15 2 -19 42
-25 31 -4 49 -3 51 4 2 6 12 11 23 11 10 0 19 7 19 15 0 9 9 15 21 15 27 0 19
24 -10 28 -13 2 -26 14 -32 30 -10 25 -12 26 -23 10 -19 -25 -49 -24 -41 1 5
16 -1 22 -32 30 -21 6 -44 11 -50 11 -18 0 -16 -29 1 -36 18 -7 9 -34 -10 -34
-8 0 -14 9 -14 19 0 11 -6 21 -12 23 -8 3 -12 18 -10 40 3 32 0 36 -25 41 -32
6 -50 -12 -28 -29 18 -14 20 -34 3 -34 -37 1 -58 13 -53 31 5 14 1 19 -13 19
-14 0 -21 -9 -25 -30 -4 -19 -13 -30 -23 -30 -13 0 -15 6 -9 38 4 20 8 43 9
51 2 20 -23 26 -29 7z m345 -186 c0 -13 -7 -20 -20 -20 -13 0 -20 7 -20 20 0
13 7 20 20 20 13 0 20 -7 20 -20z"/>
<path d="M2124 2179 c-10 -17 13 -36 27 -22 12 12 4 33 -11 33 -5 0 -12 -5
-16 -11z"/>
<path d="M2322 2089 c2 -6 8 -10 13 -10 5 0 11 4 13 10 2 6 -4 11 -13 11 -9 0
-15 -5 -13 -11z"/>
<path d="M1853 2064 c-7 -19 2 -28 22 -21 19 8 19 23 0 31 -9 3 -18 -1 -22
-10z"/>
<path d="M2420 2064 c0 -9 5 -14 12 -12 18 6 21 28 4 28 -9 0 -16 -7 -16 -16z"/>
<path d="M2342 2048 c6 -18 56 -29 62 -13 5 14 -14 25 -46 25 -11 0 -18 -5
-16 -12z"/>
<path d="M2486 2051 c-3 -5 1 -11 9 -15 9 -3 15 0 15 9 0 16 -16 20 -24 6z"/>
<path d="M2440 2025 c0 -8 7 -15 15 -15 8 0 15 7 15 15 0 8 -7 15 -15 15 -8 0
-15 -7 -15 -15z"/>
<path d="M1747 1913 c-14 -60 -22 -111 -19 -114 4 -4 49 -16 99 -28 51 -12 99
-24 107 -27 11 -4 20 21 41 107 14 61 23 115 18 119 -8 8 -184 50 -207 50 -8
0 -23 -40 -39 -107z m139 51 c38 -8 71 -17 75 -20 6 -3 -27 -154 -36 -163 -5
-5 -148 30 -157 38 -6 5 10 91 28 149 4 15 9 15 90 -4z"/>
<path d="M1813 1893 c-6 -26 -11 -49 -10 -50 1 0 23 -4 49 -8 l47 -7 11 42
c13 50 9 56 -46 65 l-40 6 -11 -48z"/>
<path d="M2330 1985 c0 -16 16 -20 24 -6 3 5 -1 11 -9 15 -9 3 -15 0 -15 -9z"/>
<path d="M2460 1950 c0 -5 7 -10 15 -10 8 0 15 5 15 10 0 6 -7 10 -15 10 -8 0
-15 -4 -15 -10z"/>
<path d="M2350 1936 c0 -12 -7 -13 -32 -5 -41 11 -38 12 -38 -6 0 -8 12 -17
28 -21 15 -3 33 -8 41 -10 8 -3 18 1 23 8 13 21 9 48 -7 48 -8 0 -15 -6 -15
-14z"/>
<path d="M2107 1933 c-4 -3 -7 -17 -7 -30 0 -33 24 -24 28 10 3 26 -7 35 -21
20z"/>
<path d="M2420 1925 c0 -8 7 -15 15 -15 8 0 15 7 15 15 0 8 -7 15 -15 15 -8 0
-15 -7 -15 -15z"/>
<path d="M2205 1910 c-9 -14 -7 -16 27 -24 23 -5 48 7 36 19 -11 11 -57 15
-63 5z"/>
<path d="M2440 1886 c0 -11 -9 -13 -34 -9 -36 6 -36 6 -50 -59 -4 -19 -13 -28
-26 -28 -11 0 -20 -7 -20 -15 0 -12 -7 -14 -27 -9 -37 9 -38 10 -38 47 0 27
-4 32 -27 35 -22 3 -27 -2 -33 -28 -5 -22 -12 -30 -23 -28 -10 2 -17 10 -17
18 0 19 -15 30 -42 30 -26 0 -30 -15 -8 -28 19 -10 10 -43 -10 -36 -7 3 -15
-1 -18 -10 -3 -8 1 -17 9 -20 8 -3 14 -12 14 -20 0 -10 19 -21 52 -31 70 -20
75 -20 83 15 6 29 9 30 41 24 22 -4 34 -2 34 5 0 14 58 44 70 36 5 -3 13 9 18
27 5 19 16 34 26 36 15 3 16 -1 11 -31 -5 -25 -3 -36 8 -40 11 -4 19 10 31 58
20 79 20 75 -4 75 -11 0 -20 -6 -20 -14z m-200 -122 c0 -8 -9 -14 -20 -14 -19
0 -27 19 -14 33 10 9 34 -4 34 -19z m-81 -3 c17 -11 6 -31 -19 -31 -13 0 -17
5 -13 20 6 22 11 24 32 11z"/>
<path d="M2160 1881 c0 -5 7 -11 15 -15 9 -3 15 0 15 9 0 8 -7 15 -15 15 -8 0
-15 -4 -15 -9z"/>
<path d="M2060 1871 c0 -17 18 -21 24 -6 3 9 0 15 -9 15 -8 0 -15 -4 -15 -9z"/>
<path d="M2006 1814 c-3 -8 1 -14 9 -14 20 0 28 17 11 23 -8 3 -17 -1 -20 -9z"/>
<path d="M1995 1750 c-9 -14 -7 -16 28 -24 20 -5 27 -3 27 9 0 8 -4 15 -9 15
-5 0 -16 3 -24 6 -8 3 -18 0 -22 -6z"/>
<path d="M2257 1686 c-7 -16 1 -26 20 -26 7 0 13 9 13 20 0 23 -25 27 -33 6z"/>
</g>
</svg>
